<svg width="172" height="60" viewBox="0 0 172 60" fill="none" xmlns="http://www.w3.org/2000/svg">
<g clip-path="url(#clip0_699_49183)">
<path d="M157.8 14.703H149.56V9.19848H159.617L167.864 0.951754L167.938 1.02552V0.931641H139.912V37.6866H158.276C165.651 37.6866 171.142 33.999 171.142 26.1948C171.142 18.3906 165.651 14.703 157.8 14.703ZM156.882 29.8757H149.56V22.5341H156.882C159.161 22.5341 161.461 23.4258 161.461 26.1948C161.461 28.9638 159.161 29.8757 156.882 29.8757Z" fill="#2F2A85"/>
<path d="M98.0814 0.931641H76.5527L64.082 13.4023V37.6866H73.73V9.19849H88.4334V37.6866H88.4535L98.0814 28.0587V0.931641Z" fill="#2F2A85"/>
<path d="M121.696 29.8553C115.253 29.8553 111.639 25.1285 111.639 19.2955C111.639 14.6022 114.274 8.72895 121.521 8.72895C123.141 8.74041 124.738 9.1065 126.201 9.80149C127.664 10.4965 128.957 11.5035 129.989 12.7517L135.856 6.88516C134.046 4.71931 131.783 2.97753 129.226 1.78303C126.669 0.588532 123.881 -0.0294937 121.059 -0.0273381C110.398 -0.0273381 101.991 7.85734 101.991 19.2687C101.963 23.3205 103.222 27.2766 105.586 30.5675C107.95 33.8584 111.297 36.3142 115.145 37.5814C118.994 38.8487 123.146 38.8619 127.002 37.6193C130.859 36.3767 134.222 33.9423 136.607 30.6666L130.7 24.7598C129.773 26.3202 128.455 27.6113 126.876 28.5051C125.296 29.3989 123.51 29.8643 121.696 29.8553Z" fill="#2F2A85"/>
<path d="M64.0829 50.908C64.0709 50.2131 64.1997 49.5229 64.4616 48.8791C64.7234 48.2353 65.1129 47.6511 65.6066 47.1619C66.1002 46.6726 66.6878 46.2883 67.334 46.0322C67.9801 45.7761 68.6714 45.6535 69.3662 45.6717C70.2417 45.6573 71.1055 45.8749 71.8698 46.3023C72.634 46.7298 73.2715 47.3519 73.7175 48.1055L73.047 48.5011C72.6783 47.8551 72.1427 47.3202 71.4963 46.9522C70.8499 46.5842 70.1166 46.3966 69.3729 46.4092C68.1797 46.4092 67.0354 46.8832 66.1917 47.7269C65.348 48.5706 64.8741 49.7149 64.8741 50.908C64.8741 52.1012 65.348 53.2455 66.1917 54.0892C67.0354 54.9329 68.1797 55.4068 69.3729 55.4068C70.1252 55.421 70.8672 55.23 71.5193 54.8544C72.1713 54.4788 72.7087 53.9327 73.0739 53.2748L73.7443 53.6703C73.3015 54.4377 72.6613 55.0724 71.8902 55.5087C71.1191 55.9449 70.2453 56.1667 69.3595 56.1511C68.6647 56.1684 67.9735 56.0448 67.3277 55.7879C66.6819 55.531 66.0948 55.146 65.6018 54.6561C65.1088 54.1662 64.72 53.5816 64.459 52.9374C64.1979 52.2933 64.07 51.6029 64.0829 50.908Z" fill="#2F2A85"/>
<path d="M69.3654 56.4872C68.617 56.5131 67.8711 56.3881 67.172 56.1197C66.473 55.8512 65.8352 55.4447 65.2966 54.9245C64.758 54.4042 64.3296 53.7809 64.0371 53.0916C63.7445 52.4022 63.5938 51.6611 63.5938 50.9123C63.5938 50.1634 63.7445 49.4223 64.0371 48.7329C64.3296 48.0436 64.758 47.4203 65.2966 46.9C65.8352 46.3798 66.473 45.9733 67.172 45.7048C67.8711 45.4364 68.617 45.3114 69.3654 45.3373C70.3009 45.3248 71.2231 45.5594 72.0389 46.0173C72.8547 46.4753 73.5352 47.1404 74.0117 47.9454L74.1793 48.2337L72.9055 48.9646L72.7445 48.6561C72.4045 48.0698 71.9151 47.5841 71.3262 47.2484C70.7373 46.9127 70.07 46.7391 69.3922 46.7453C68.288 46.7453 67.2289 47.184 66.4481 47.9648C65.6673 48.7456 65.2286 49.8047 65.2286 50.9089C65.2286 52.0132 65.6673 53.0722 66.4481 53.853C67.2289 54.6338 68.288 55.0725 69.3922 55.0725C70.083 55.0843 70.7642 54.9092 71.3637 54.5657C71.9633 54.2223 72.4589 53.7233 72.7982 53.1214L72.9591 52.813L74.1995 53.5438L74.0452 53.8321C73.5719 54.6509 72.8886 55.3286 72.066 55.7953C71.2433 56.262 70.3111 56.5009 69.3654 56.4872ZM69.3654 46.0078C68.7061 45.9834 68.0486 46.0922 67.4323 46.3277C66.816 46.5632 66.2535 46.9205 65.7784 47.3784C65.3033 47.8362 64.9255 48.3851 64.6674 48.9923C64.4093 49.5995 64.2762 50.2525 64.2762 50.9123C64.2762 51.572 64.4093 52.225 64.6674 52.8322C64.9255 53.4394 65.3033 53.9883 65.7784 54.4461C66.2535 54.904 66.816 55.2613 67.4323 55.4968C68.0486 55.7323 68.7061 55.8411 69.3654 55.8167C70.1339 55.8282 70.8935 55.6508 71.5773 55.3001C72.2612 54.9494 72.8485 54.4361 73.2876 53.8053L73.1871 53.7517C72.7668 54.3775 72.1975 54.8891 71.5303 55.2402C70.8632 55.5913 70.1192 55.771 69.3654 55.7631C68.0833 55.7631 66.8538 55.2538 65.9472 54.3472C65.0406 53.4407 64.5313 52.2111 64.5313 50.929C64.5313 49.6469 65.0406 48.4174 65.9472 47.5108C66.8538 46.6043 68.0833 46.095 69.3654 46.095C70.1037 46.0903 70.8319 46.2655 71.4873 46.6054C72.1426 46.9454 72.7053 47.4398 73.1267 48.046L73.2273 47.9924C72.791 47.375 72.212 46.8722 71.5396 46.5266C70.8673 46.1811 70.1214 46.0031 69.3654 46.0078Z" fill="#2C2F80"/>
<path d="M82.3859 46.557H79.1945V55.9904H78.41V46.557H75.2119V45.8262H82.3859V46.557Z" fill="#2F2A85"/>
<path d="M79.53 56.3261H78.0751V46.8926H74.877V45.498H82.7214V46.8993H79.53V56.3261ZM78.7456 55.6556H78.8595V46.2221H82.0509V46.1685H75.5474V46.2289H78.7456V55.6556Z" fill="#2C2F80"/>
<path d="M91.3304 48.9767C91.3407 49.3938 91.2656 49.8087 91.1099 50.1958C90.9541 50.5829 90.7209 50.9341 90.4246 51.2279C90.1283 51.5217 89.7751 51.7519 89.3867 51.9043C88.9983 52.0568 88.5828 52.1283 88.1658 52.1145H85.4839V55.9898H84.7129V45.8255H88.1725C88.5899 45.8135 89.0053 45.8867 89.3934 46.0408C89.7816 46.1948 90.1342 46.4264 90.4298 46.7213C90.7254 47.0163 90.9577 47.3684 91.1125 47.7562C91.2674 48.144 91.3415 48.5593 91.3304 48.9767ZM90.5594 48.9767C90.5734 48.6574 90.5213 48.3386 90.4063 48.0404C90.2913 47.7422 90.116 47.4709 89.8912 47.2437C89.6665 47.0164 89.3972 46.8381 89.1003 46.7198C88.8034 46.6015 88.4852 46.5458 88.1658 46.5563H85.4839V51.3904H88.1658C88.4846 51.4008 88.8022 51.3453 89.0987 51.2274C89.3951 51.1095 89.6641 50.9318 89.8887 50.7053C90.1133 50.4787 90.2888 50.2083 90.4042 49.9109C90.5196 49.6135 90.5724 49.2954 90.5594 48.9767Z" fill="#2F2A85"/>
<path d="M85.8126 56.3261H84.3711V45.498H88.1659C88.6229 45.498 89.0754 45.588 89.4976 45.7629C89.9198 45.9378 90.3033 46.1941 90.6265 46.5172C90.9496 46.8404 91.2059 47.224 91.3808 47.6461C91.5557 48.0683 91.6457 48.5208 91.6457 48.9778C91.6457 49.4347 91.5557 49.8872 91.3808 50.3094C91.2059 50.7316 90.9496 51.1152 90.6265 51.4383C90.3033 51.7614 89.9198 52.0177 89.4976 52.1926C89.0754 52.3675 88.6229 52.4575 88.1659 52.4575H85.8126V56.3261ZM85.0416 55.6556H85.1421V51.7803H88.1659C88.911 51.7803 89.6256 51.4843 90.1524 50.9575C90.6792 50.4307 90.9752 49.7161 90.9752 48.9711C90.9752 48.226 90.6792 47.5115 90.1524 46.9846C89.6256 46.4578 88.911 46.1618 88.1659 46.1618H85.0416V55.6556ZM88.1659 51.7267H85.1421V46.2221H88.1659C88.8724 46.257 89.5384 46.5622 90.026 47.0745C90.5137 47.5869 90.7857 48.2671 90.7857 48.9744C90.7857 49.6817 90.5137 50.3619 90.026 50.8743C89.5384 51.3866 88.8724 51.6918 88.1659 51.7267ZM85.8126 51.0562H88.1659C88.6976 51.026 89.1976 50.7935 89.5634 50.4064C89.9291 50.0193 90.1329 49.507 90.1329 48.9744C90.1329 48.4419 89.9291 47.9295 89.5634 47.5424C89.1976 47.1553 88.6976 46.9228 88.1659 46.8926H85.8126V51.0562Z" fill="#2C2F80"/>
<path d="M98.7928 53.4091H93.6972L92.705 55.9904H91.9004L95.8494 45.8262H96.6607L100.616 55.9904H99.8052L98.7928 53.4091ZM98.5179 52.6783L96.2517 46.7715L93.9855 52.6783H98.5179Z" fill="#2F2A85"/>
<path d="M101.079 56.3261H99.5502L98.5579 53.7448H93.9116L92.926 56.3261H91.3906L95.6146 45.498H96.8885L101.079 56.3261ZM100.006 55.6556H100.1L96.4258 46.1685H96.3722L99.0004 53.0207H93.4959L96.1241 46.1685H96.0705L92.3829 55.6623H92.4768L93.4624 53.081H99.0205L100.006 55.6556ZM94.4748 52.3435H98.0283L96.2515 47.7106L94.4748 52.3435Z" fill="#2C2F80"/>
<path d="M108.661 55.9904L105.725 51.4648L102.795 55.9904H101.896L105.249 50.7675L102.057 45.8262H102.942L105.698 50.0836L108.44 45.8262H109.332L106.134 50.7675L109.486 55.9904H108.661Z" fill="#2F2A85"/>
<path d="M110.136 56.3261H108.447L105.698 52.082L102.949 56.3261H101.286L104.887 50.7679L101.44 45.498H103.123L105.698 49.4739L108.259 45.498H109.942L106.536 50.7746L110.136 56.3261ZM108.795 55.6556H108.883L105.718 50.7679L108.695 46.1618H108.661L105.731 50.7009L102.761 46.1685H102.674L105.651 50.7746L102.486 55.6623H102.587L105.698 50.8551L108.795 55.6556Z" fill="#2C2F80"/>
<path d="M110.827 50.9091C110.827 49.8718 111.135 48.8578 111.711 47.9955C112.288 47.1331 113.107 46.4611 114.065 46.0645C115.024 45.6678 116.078 45.5644 117.096 45.7673C118.113 45.9701 119.047 46.4701 119.78 47.204C120.513 47.938 121.012 48.8728 121.213 49.8903C121.415 50.9078 121.31 51.9622 120.912 52.9201C120.514 53.8781 119.841 54.6965 118.978 55.2718C118.115 55.8471 117.101 56.1534 116.064 56.1521C115.374 56.1566 114.691 56.024 114.053 55.762C113.415 55.5 112.836 55.1138 112.349 54.626C111.861 54.1381 111.476 53.5583 111.215 52.9202C110.954 52.2821 110.822 51.5985 110.827 50.9091ZM120.536 50.9091C120.53 50.0257 120.264 49.1638 119.769 48.4319C119.274 47.7 118.574 47.131 117.757 46.7966C116.939 46.4623 116.041 46.3775 115.175 46.5531C114.309 46.7287 113.515 47.1567 112.892 47.7832C112.269 48.4096 111.846 49.2065 111.676 50.0733C111.505 50.94 111.595 51.8378 111.935 52.6534C112.274 53.469 112.847 54.1658 113.582 54.656C114.317 55.1463 115.18 55.4079 116.064 55.4079C116.654 55.4106 117.239 55.2959 117.784 55.0704C118.33 54.8449 118.825 54.5132 119.241 54.0946C119.658 53.6759 119.986 53.1787 120.208 52.6318C120.431 52.0849 120.542 51.4993 120.536 50.9091Z" fill="#2F2A85"/>
<path d="M116.037 56.4866C114.934 56.4866 113.855 56.1595 112.938 55.5465C112.021 54.9336 111.306 54.0624 110.884 53.0431C110.461 52.0238 110.351 50.9022 110.566 49.8201C110.781 48.738 111.313 47.744 112.093 46.9639C112.873 46.1838 113.867 45.6525 114.949 45.4373C116.031 45.222 117.153 45.3325 118.172 45.7547C119.191 46.1769 120.062 46.8919 120.675 47.8092C121.288 48.7266 121.616 49.8051 121.616 50.9084C121.625 51.6434 121.486 52.3728 121.209 53.0537C120.932 53.7345 120.522 54.353 120.002 54.8728C119.482 55.3926 118.863 55.8032 118.183 56.0803C117.502 56.3575 116.772 56.4956 116.037 56.4866ZM116.037 46.0072C115.066 46.0072 114.117 46.2953 113.31 46.8348C112.503 47.3744 111.874 48.1413 111.502 49.0385C111.131 49.9356 111.034 50.9228 111.224 51.875C111.414 52.8272 111.882 53.7017 112.569 54.3878C113.256 55.0739 114.131 55.5408 115.084 55.7294C116.036 55.918 117.023 55.8198 117.92 55.4474C118.817 55.0749 119.583 54.4448 120.121 53.6368C120.66 52.8288 120.946 51.8793 120.945 50.9084C120.952 50.2622 120.83 49.6211 120.586 49.0227C120.342 48.4244 119.981 47.881 119.523 47.4243C119.066 46.9677 118.522 46.6071 117.923 46.3637C117.325 46.1204 116.683 45.9992 116.037 46.0072ZM116.037 55.7424C115.08 55.7477 114.143 55.4687 113.344 54.9408C112.546 54.4129 111.922 53.6597 111.552 52.7769C111.182 51.8941 111.083 50.9213 111.266 49.9818C111.45 49.0423 111.908 48.1785 112.583 47.4998C113.258 46.821 114.119 46.3579 115.057 46.1692C115.996 45.9805 116.969 46.0747 117.854 46.4398C118.739 46.8048 119.496 47.4244 120.028 48.2199C120.56 49.0154 120.844 49.9511 120.845 50.9084C120.853 51.5434 120.735 52.1738 120.497 52.7626C120.259 53.3514 119.906 53.8866 119.458 54.337C119.01 54.7873 118.477 55.1436 117.89 55.385C117.302 55.6263 116.672 55.7478 116.037 55.7424ZM116.037 46.7447C115.213 46.7394 114.405 46.9791 113.717 47.4334C113.029 47.8876 112.491 48.536 112.172 49.2963C111.852 50.0566 111.766 50.8946 111.924 51.7041C112.081 52.5135 112.476 53.2579 113.057 53.8428C113.638 54.4278 114.38 54.827 115.188 54.9899C115.997 55.1527 116.835 55.0718 117.598 54.7575C118.36 54.4432 119.012 53.9095 119.47 53.2243C119.929 52.539 120.174 51.733 120.174 50.9084C120.181 50.3619 120.079 49.8194 119.874 49.3128C119.669 48.8062 119.365 48.3456 118.98 47.9579C118.595 47.5702 118.136 47.2632 117.631 47.0549C117.126 46.8466 116.584 46.7411 116.037 46.7447Z" fill="#2C2F80"/>
<path d="M131.136 53.2214C131.137 53.5859 131.066 53.9469 130.927 54.2837C130.787 54.6205 130.583 54.9264 130.325 55.1838C130.067 55.4412 129.76 55.6449 129.423 55.7834C129.086 55.9218 128.725 55.9922 128.36 55.9904H123.976V45.8262H127.998C128.71 45.8262 129.392 46.1087 129.895 46.6117C130.398 47.1146 130.68 47.7968 130.68 48.508C130.686 48.9622 130.568 49.4093 130.337 49.8006C130.107 50.192 129.773 50.5125 129.373 50.7273C129.886 50.9142 130.329 51.2531 130.644 51.6988C130.959 52.1445 131.131 52.6756 131.136 53.2214ZM124.753 46.557V50.4457H128.032C128.548 50.4457 129.042 50.2408 129.407 49.8762C129.771 49.5116 129.976 49.017 129.976 48.5013C129.976 47.9857 129.771 47.4911 129.407 47.1265C129.042 46.7618 128.548 46.557 128.032 46.557H124.753ZM130.372 53.2214C130.377 52.9539 130.329 52.688 130.23 52.4393C130.132 52.1906 129.984 51.9641 129.797 51.7731C129.61 51.582 129.386 51.4302 129.14 51.3267C128.893 51.2231 128.628 51.1697 128.36 51.1698H124.753V55.2663H128.367C128.633 55.2646 128.896 55.2102 129.141 55.1062C129.385 55.0023 129.607 54.8508 129.793 54.6607C129.978 54.4705 130.125 54.2454 130.223 53.9983C130.321 53.7513 130.37 53.4872 130.365 53.2214H130.372Z" fill="#2F2A85"/>
<path d="M128.36 56.3261H123.667V45.498H128.052C128.85 45.4998 129.614 45.8175 130.179 46.3817C130.743 46.9459 131.06 47.7106 131.062 48.5084C131.067 48.9206 130.981 49.3288 130.811 49.7041C130.641 50.0795 130.39 50.4129 130.077 50.6808C130.511 50.9487 130.87 51.3235 131.119 51.7695C131.368 52.2155 131.498 52.7178 131.498 53.2285C131.496 53.6382 131.414 54.0435 131.255 54.4211C131.096 54.7988 130.864 55.1413 130.573 55.4292C130.281 55.717 129.936 55.9444 129.556 56.0983C129.176 56.2522 128.77 56.3296 128.36 56.3261ZM124.337 55.6556H128.36C129.006 55.6556 129.626 55.3994 130.084 54.9432C130.541 54.4869 130.799 53.8679 130.801 53.2218C130.8 52.7798 130.674 52.347 130.437 51.9741C130.199 51.6013 129.86 51.3038 129.46 51.1166C129.835 51.3251 130.147 51.6304 130.364 52.0007C130.581 52.371 130.695 52.7927 130.693 53.2218C130.697 53.8472 130.453 54.4486 130.015 54.8946C129.576 55.3406 128.979 55.5949 128.354 55.602H124.405V50.8618H128.354C128.56 50.8608 128.765 50.8879 128.964 50.9422L128.581 50.7947L128.937 50.607C128.649 50.7389 128.335 50.8075 128.018 50.8081H124.405V46.249H128.018C128.315 46.2516 128.608 46.3126 128.881 46.4286C129.155 46.5446 129.402 46.7133 129.61 46.925C129.818 47.1366 129.982 47.3872 130.093 47.6623C130.205 47.9375 130.26 48.2318 130.258 48.5285C130.259 48.9195 130.159 49.3041 129.969 49.6457C129.779 49.9873 129.504 50.2744 129.172 50.4796H129.225C129.572 50.2938 129.862 50.0159 130.062 49.6765C130.262 49.3371 130.364 48.9492 130.358 48.5554C130.356 47.9353 130.109 47.3412 129.671 46.9028C129.233 46.4643 128.638 46.2172 128.018 46.2155H124.304L124.337 55.6556ZM125.108 54.9315H128.387C128.823 54.9042 129.232 54.7119 129.531 54.3936C129.83 54.0753 129.996 53.6551 129.996 53.2185C129.996 52.7818 129.83 52.3616 129.531 52.0433C129.232 51.7251 128.823 51.5327 128.387 51.5054H125.108V54.9315ZM125.108 50.1109H128.052C128.479 50.1109 128.888 49.9413 129.19 49.6396C129.491 49.3378 129.661 48.9285 129.661 48.5017C129.661 48.075 129.491 47.6657 129.19 47.3639C128.888 47.0621 128.479 46.8926 128.052 46.8926H125.108V50.1109Z" fill="#2C2F80"/>
<path d="M139.597 53.4091H134.502L133.516 55.9904H132.698L136.647 45.8262H137.492L141.421 55.9904H140.61L139.597 53.4091ZM139.322 52.6783L137.056 46.7715L134.81 52.6783H139.322Z" fill="#2F2A85"/>
<path d="M141.883 56.3261H140.354L139.362 53.7448H134.729L133.743 56.3261H132.208L136.419 45.498H137.692L141.883 56.3261ZM140.817 55.6556H140.904L137.23 46.1685H137.183L139.811 53.0207H134.307L136.928 46.1685H136.881L133.187 55.6623H133.281L134.266 53.081H139.825L140.817 55.6556ZM135.279 52.3435H138.832L137.055 47.7106L135.279 52.3435Z" fill="#2C2F80"/>
<path d="M151.049 45.8262V55.9904H150.278V51.1296H144.371V55.9904H143.606V45.8262H144.371V50.3988H150.278V45.8262H151.049Z" fill="#2F2A85"/>
<path d="M151.384 56.3261H149.949V51.4652H144.706V56.3261H143.271V45.498H144.706V50.0706H149.949V45.498H151.384V56.3261ZM150.62 55.6556H150.714V46.1685H150.62V50.7411H144.036V46.1685H143.942V55.6623H144.036V50.7947H150.62V55.6556Z" fill="#2C2F80"/>
<path d="M160.958 47.2543L154.923 55.9703H154.253V45.8262H155.024V54.5422L161.018 45.8262H161.688V55.9904H160.958V47.2543Z" fill="#2F2A85"/>
<path d="M162.084 56.3261H160.643V48.3341L155.145 56.3261H153.965V45.498H155.406V53.4967L160.891 45.498H162.084V56.3261ZM161.313 55.6556H161.414V46.1685H161.246L154.736 55.6556V46.1685H154.635V55.6623H154.796L161.313 46.1685V55.6556Z" fill="#2C2F80"/>
<path d="M170.854 55.2663V55.9904H164.98V45.8262H170.76V46.557H165.752V50.506H170.398V51.2301H165.752V55.2529L170.854 55.2663Z" fill="#2F2A85"/>
<path d="M171.183 56.3261H164.666V45.498H171.116V46.8993H166.108V50.1913H170.754V51.5859H166.108V54.9382H171.183V56.3261ZM165.336 55.6556H170.512V55.602H165.437V50.9087H170.083V50.8618H165.437V46.2423H170.445V46.1685H165.336V55.6556Z" fill="#2C2F80"/>
<path d="M51.4508 0.912109H38.3432H13.8712L0.810547 13.9728V14.0197H38.3432V32.6251L28.3801 41.0596L28.427 59.9802L51.4307 39.2762L51.2095 39.0415H51.4508V14.0197V0.912109Z" fill="#E9561A"/>
<path d="M31.1424 31.8947H31.2363L32.9795 30.4063V18.7871H12.7247H0.810547V31.8947V39.0419H1.29999L1.05862 39.2967L24.1562 60.0074L24.2031 41.0801L13.2678 31.8947H25.5373H31.1424Z" fill="#2B3079"/>
</g>
<defs>
<clipPath id="clip0_699_49183">
<rect width="170.379" height="60" fill="white" transform="translate(0.810547)"/>
</clipPath>
</defs>
</svg>
